<svg width="130" height="50" fill="none" xmlns="http://www.w3.org/2000/svg"><g clip-path="url(#a)" fill="#404096"><path d="M114.9.6a68 68 0 0 0-6.2.7L100.9 13l-9.1 13.7-1.5 2.2v9.1h1a385.3 385.3 0 0 0 21-1.6c.2 0 .3.8.3 3.2 0 2.3.1 3.2.5 3.2l10-.8 1.8-.2-.1-3.2-.1-3.1 1.3-.2 2.7-.2h1.3v-9.3l-1.7.1-2.7.3h-1l.2-13.1V0H123l-8 .6ZM113 20.1v7.2l-4.9.4c-2.6.2-4.9.3-5 .2 0 0 9.6-15 9.8-15l.1 7.2ZM63.5 4.2c-7.4 1-13 4.6-16.2 10.4-2.2 4-2.8 7.2-2.8 13.1 0 5.3.5 7.7 2.4 11.5 1.3 2.6 4.5 5.8 6.8 6.9a24.5 24.5 0 0 0 19.2-.2 22 22 0 0 0 8.8-7.7A27 27 0 0 0 85.1 24c0-8.4-2.8-14.2-8.2-17.4-3.2-2-8.6-3-13.4-2.3Zm4.8 10.2c3 2 4.4 8.9 3.2 15.7-1 6.5-5.8 10-10 7.5-2.6-1.7-3.8-5.1-3.8-11.1 0-7 1.5-10.7 5.2-12.5 1.4-.6 4.1-.5 5.4.4ZM25.2 7.8l-7 .7-2.9 4.4-9 13.8L0 36v9.4l1.2-.1 9.8-.9 10-.8 1.3-.2v3.2c0 3.2 0 3.3.8 3.3l6-.4 5.3-.3V42.6h1l2.6-.2 1.7-.2V33l-2.7.2-2.6.2V7.1h-1.2l-8 .7Zm-2.9 19.7v7l-1.6.1-5 .4-3.3.3 4.8-7.4 5-7.3.1 7Z"/></g><defs><clipPath id="a"><path fill="#fff" d="M0 0h130v50H0z"/></clipPath></defs></svg>